<?xml version="1.0" encoding="UTF-8" standalone="no"?>
<!DOCTYPE svg PUBLIC "-//W3C//DTD SVG 1.0//EN"
 "http://www.w3.org/TR/2001/REC-SVG-20010904/DTD/svg10.dtd" [
 <!ATTLIST svg xmlns:xlink CDATA #FIXED "http://www.w3.org/1999/xlink">
]>
<!-- Generated by Graphviz version 2.16 (Wed Jan  9 23:52:32 UTC 2008)
     For user: (homer) homer,,, -->
<!-- Title: des Pages: 1 -->
<svg width="372pt" height="312pt"
 viewBox="0.00 0.00 372.00 312.00" xmlns="http://www.w3.org/2000/svg" xmlns:xlink="http://www.w3.org/1999/xlink">
<g id="graph0" class="graph" transform="scale(1 1) rotate(0) translate(4 308)">
<title>des</title>
<polygon style="fill:none;stroke:none;" points="-4,4 -4,-308 368,-308 368,4 -4,4"/>
<g id="cluster2" class="cluster"><title>clusterGraph</title>
</g>
<g id="cluster5" class="cluster"><title>clusterLabel</title>
</g>
<!-- f1 -->
<g id="node3" class="node"><title>f1</title>
<ellipse style="fill:lightblue;stroke:black;" cx="34" cy="-152" rx="18" ry="18"/>
</g>
<!-- o1 -->
<g id="node24" class="node"><title>o1</title>
<ellipse style="fill:lightblue;stroke:black;" cx="115" cy="-270" rx="18" ry="18"/>
</g>
<!-- f1&#45;&gt;o1 -->
<g id="edge29" class="edge"><title>f1&#45;&gt;o1</title>
<path style="fill:none;stroke:black;" d="M44,-167C58,-187 83,-223 99,-247"/>
<polygon style="fill:black;stroke:black;" points="96.2,-249.1 105,-255 101.8,-244.9 96.2,-249.1"/>
</g>
<!-- f2 -->
<g id="node4" class="node"><title>f2</title>
<ellipse style="fill:lightblue;stroke:black;" cx="88" cy="-152" rx="18" ry="18"/>
</g>
<!-- f2&#45;&gt;o1 -->
<g id="edge31" class="edge"><title>f2&#45;&gt;o1</title>
<path style="fill:none;stroke:black;" d="M92,-170C96,-189 104,-220 109,-242"/>
<polygon style="fill:black;stroke:black;" points="105.607,-242.881 111,-252 112.471,-241.508 105.607,-242.881"/>
</g>
<!-- f3 -->
<g id="node5" class="node"><title>f3</title>
<ellipse style="fill:lightblue;stroke:black;" cx="142" cy="-152" rx="18" ry="18"/>
</g>
<!-- f3&#45;&gt;o1 -->
<g id="edge33" class="edge"><title>f3&#45;&gt;o1</title>
<path style="fill:none;stroke:black;" d="M138,-170C134,-189 126,-220 121,-242"/>
<polygon style="fill:black;stroke:black;" points="117.529,-241.508 119,-252 124.393,-242.881 117.529,-241.508"/>
</g>
<!-- f4 -->
<g id="node6" class="node"><title>f4</title>
<ellipse style="fill:lightblue;stroke:black;" cx="196" cy="-152" rx="18" ry="18"/>
</g>
<!-- f4&#45;&gt;o1 -->
<g id="edge35" class="edge"><title>f4&#45;&gt;o1</title>
<path style="fill:none;stroke:black;" d="M186,-167C172,-187 147,-223 131,-247"/>
<polygon style="fill:black;stroke:black;" points="128.2,-244.9 125,-255 133.8,-249.1 128.2,-244.9"/>
</g>
<!-- i1 -->
<g id="node8" class="node"><title>i1</title>
<ellipse style="fill:lightblue;stroke:black;" cx="115" cy="-34" rx="18" ry="18"/>
</g>
<!-- i1&#45;&gt;f1 -->
<g id="edge5" class="edge"><title>i1&#45;&gt;f1</title>
<path style="fill:none;stroke:black;" d="M105,-49C91,-69 66,-105 50,-129"/>
<polygon style="fill:black;stroke:black;" points="47.2,-126.9 44,-137 52.8,-131.1 47.2,-126.9"/>
</g>
<!-- i1&#45;&gt;f2 -->
<g id="edge7" class="edge"><title>i1&#45;&gt;f2</title>
<path style="fill:none;stroke:black;" d="M111,-52C107,-71 99,-102 94,-124"/>
<polygon style="fill:black;stroke:black;" points="90.5292,-123.508 92,-134 97.3933,-124.881 90.5292,-123.508"/>
</g>
<!-- i1&#45;&gt;f3 -->
<g id="edge9" class="edge"><title>i1&#45;&gt;f3</title>
<path style="fill:none;stroke:black;" d="M119,-52C123,-71 131,-102 136,-124"/>
<polygon style="fill:black;stroke:black;" points="132.607,-124.881 138,-134 139.471,-123.508 132.607,-124.881"/>
</g>
<!-- i1&#45;&gt;f4 -->
<g id="edge11" class="edge"><title>i1&#45;&gt;f4</title>
<path style="fill:none;stroke:black;" d="M125,-49C139,-69 164,-105 180,-129"/>
<polygon style="fill:black;stroke:black;" points="177.2,-131.1 186,-137 182.8,-126.9 177.2,-131.1"/>
</g>
<!-- i2 -->
<g id="node9" class="node"><title>i2</title>
<ellipse style="fill:lightblue;stroke:black;" cx="61" cy="-34" rx="18" ry="18"/>
</g>
<!-- i2&#45;&gt;f1 -->
<g id="edge13" class="edge"><title>i2&#45;&gt;f1</title>
<path style="fill:none;stroke:black;" d="M57,-52C53,-71 45,-102 40,-124"/>
<polygon style="fill:black;stroke:black;" points="36.5292,-123.508 38,-134 43.3933,-124.881 36.5292,-123.508"/>
</g>
<!-- i2&#45;&gt;f2 -->
<g id="edge15" class="edge"><title>i2&#45;&gt;f2</title>
<path style="fill:none;stroke:black;" d="M65,-52C69,-71 77,-102 82,-124"/>
<polygon style="fill:black;stroke:black;" points="78.6067,-124.881 84,-134 85.4708,-123.508 78.6067,-124.881"/>
</g>
<!-- i2&#45;&gt;f3 -->
<g id="edge17" class="edge"><title>i2&#45;&gt;f3</title>
<path style="fill:none;stroke:black;" d="M71,-49C85,-69 110,-105 126,-129"/>
<polygon style="fill:black;stroke:black;" points="123.2,-131.1 132,-137 128.8,-126.9 123.2,-131.1"/>
</g>
<!-- i2&#45;&gt;f4 -->
<g id="edge19" class="edge"><title>i2&#45;&gt;f4</title>
<path style="fill:none;stroke:black;" d="M75,-46C99,-67 146,-109 174,-133"/>
<polygon style="fill:black;stroke:black;" points="172.169,-136.049 182,-140 176.779,-130.781 172.169,-136.049"/>
</g>
<!-- i3 -->
<g id="node10" class="node"><title>i3</title>
<ellipse style="fill:lightblue;stroke:black;" cx="169" cy="-34" rx="18" ry="18"/>
</g>
<!-- i3&#45;&gt;f1 -->
<g id="edge21" class="edge"><title>i3&#45;&gt;f1</title>
<path style="fill:none;stroke:black;" d="M155,-46C131,-67 84,-109 56,-133"/>
<polygon style="fill:black;stroke:black;" points="53.221,-130.781 48,-140 57.8306,-136.049 53.221,-130.781"/>
</g>
<!-- i3&#45;&gt;f2 -->
<g id="edge23" class="edge"><title>i3&#45;&gt;f2</title>
<path style="fill:none;stroke:black;" d="M159,-49C145,-69 120,-105 104,-129"/>
<polygon style="fill:black;stroke:black;" points="101.2,-126.9 98,-137 106.8,-131.1 101.2,-126.9"/>
</g>
<!-- i3&#45;&gt;f3 -->
<g id="edge25" class="edge"><title>i3&#45;&gt;f3</title>
<path style="fill:none;stroke:black;" d="M165,-52C161,-71 153,-102 148,-124"/>
<polygon style="fill:black;stroke:black;" points="144.529,-123.508 146,-134 151.393,-124.881 144.529,-123.508"/>
</g>
<!-- i3&#45;&gt;f4 -->
<g id="edge27" class="edge"><title>i3&#45;&gt;f4</title>
<path style="fill:none;stroke:black;" d="M173,-52C177,-71 185,-102 190,-124"/>
<polygon style="fill:black;stroke:black;" points="186.607,-124.881 192,-134 193.471,-123.508 186.607,-124.881"/>
</g>
<!-- l1 -->
<g id="node29" class="node"><title>l1</title>
<ellipse style="fill:none;stroke:none;" cx="293" cy="-34" rx="33.9188" ry="18"/>
<text text-anchor="middle" x="293" y="-29.275" style="font-family:Arial;font-size:14.00;">Input x</text>
</g>
<!-- l2 -->
<g id="node30" class="node"><title>l2</title>
<ellipse style="fill:none;stroke:none;" cx="293" cy="-152" rx="54.8057" ry="27.9307"/>
<text text-anchor="middle" x="293" y="-155.15" style="font-family:Arial;font-size:14.00;">Radial basis</text>
<text text-anchor="middle" x="293" y="-139.4" style="font-family:Arial;font-size:14.00;">functions</text>
</g>
<!-- l1&#45;&gt;l2 -->
<g id="edge38" class="edge"><title>l1&#45;&gt;l2</title>
<path style="fill:none;stroke:none;" d="M293,-52C293,-68 293,-93 293,-114"/>
<polygon style="fill:none;stroke:none;" points="289.5,-114 293,-124 296.5,-114 289.5,-114"/>
<text text-anchor="middle" x="293" y="-84.275" style="font-family:Arial;font-size:14.00;">Weights</text>
</g>
<!-- l3 -->
<g id="node31" class="node"><title>l3</title>
<ellipse style="fill:none;stroke:none;" cx="293" cy="-270" rx="39.1688" ry="18"/>
<text text-anchor="middle" x="293" y="-265.275" style="font-family:Arial;font-size:14.00;">Output y</text>
</g>
<!-- l2&#45;&gt;l3 -->
<g id="edge40" class="edge"><title>l2&#45;&gt;l3</title>
<path style="fill:none;stroke:none;" d="M293,-180C293,-198 293,-223 293,-242"/>
<polygon style="fill:none;stroke:none;" points="289.5,-242 293,-252 296.5,-242 289.5,-242"/>
<text text-anchor="middle" x="293" y="-212.275" style="font-family:Arial;font-size:14.00;">Linear weights</text>
</g>
</g>
</svg>
